<svg width="48" height="48" viewBox="0 0 48 48" fill="none" xmlns="http://www.w3.org/2000/svg">
<path d="M4 10V19.5V41C4 42.6569 5.34315 44 7 44H41C42.6569 44 44 42.6569 44 41V14C44 12.3431 42.6569 11 41 11H26.7539C25.6185 11 24.517 10.6136 23.6304 9.90434L21.3696 8.09566C20.483 7.3864 19.3815 7 18.2461 7H7C5.34315 7 4 8.34315 4 10Z" fill="url(#paint0_linear_101_2)"/>
<path d="M4 10V19.5V41C4 42.6569 5.34315 44 7 44H41C42.6569 44 44 42.6569 44 41V14C44 12.3431 42.6569 11 41 11H26.7539C25.6185 11 24.517 10.6136 23.6304 9.90434L21.3696 8.09566C20.483 7.3864 19.3815 7 18.2461 7H7C5.34315 7 4 8.34315 4 10Z" fill="black" fill-opacity="0.3"/>
<path d="M41 44C42.6569 44 44 42.6569 44 41V16V14C44 12.3431 42.6569 11 41 11H26.7539C25.6185 11 24.517 11.3864 23.6304 12.0957L21.3696 13.9043C20.483 14.6136 19.3815 15 18.2461 15H7C5.34315 15 4 16.3431 4 18V41C4 42.6569 5.34315 44 7 44H41Z" fill="url(#paint1_linear_101_2)"/>
<path fill-rule="evenodd" clip-rule="evenodd" d="M44 40C44 41.6569 42.6569 43 41 43H7C5.34315 43 4 41.6569 4 40V41C4 42.6569 5.34315 44 7 44H41C42.6569 44 44 42.6569 44 41V40Z" fill="#134653" fill-opacity="0.3"/>
<circle cx="9" cy="26" r="2" fill="white"/>
<circle cx="39" cy="26" r="2" fill="white"/>
<path d="M16.5 23C16.548 29.3331 17.9855 31.4073 24 31.5" stroke="white" stroke-width="3" stroke-linecap="round" stroke-linejoin="round"/>
<path d="M32 23C31.952 29.3331 30.5145 31.4073 24.5 31.5" stroke="white" stroke-width="3" stroke-linecap="round" stroke-linejoin="round"/>
<defs>
<linearGradient id="paint0_linear_101_2" x1="43.5" y1="7" x2="0.374267" y2="39.1341" gradientUnits="userSpaceOnUse">
<stop stop-color="#FFAE74"/>
<stop offset="1" stop-color="#E54260"/>
</linearGradient>
<linearGradient id="paint1_linear_101_2" x1="43.5" y1="11" x2="4" y2="44" gradientUnits="userSpaceOnUse">
<stop stop-color="#FFAE74"/>
<stop offset="1" stop-color="#E54260"/>
</linearGradient>
</defs>
</svg>
